<svg version="1.1" id="Layer_1" xmlns="http://www.w3.org/2000/svg" xmlns:xlink="http://www.w3.org/1999/xlink" x="0px" y="0px"
	 width="100%" viewBox="0 0 500 500" enable-background="new 0 0 500 500" xml:space="preserve">
<path fill="#FFFFFF" opacity="1.000000" stroke="none" 
	d="
M214.000000,1.000000 
	C309.640381,1.000000 405.280731,1.000000 500.960571,1.000000 
	C500.960571,167.594543 500.960571,334.189117 500.960571,500.891846 
	C334.451324,500.891846 167.902557,500.891846 1.000000,500.891846 
	C1.000000,406.644318 1.000000,312.288177 1.377309,217.617264 
	C4.683974,231.100494 6.507758,245.246429 10.722450,258.639984 
	C37.701553,344.374939 120.140144,399.569427 207.241074,395.176819 
	C255.533325,392.741333 297.897369,375.599579 332.720276,342.325989 
	C386.414154,291.020966 405.449097,227.825287 390.684357,155.357285 
	C375.227203,79.491043 312.477081,19.220432 236.247757,4.755100 
	C228.860321,3.353257 221.417252,2.244700 214.000000,1.000000 
M435.374573,322.501251 
	C435.349792,316.003510 435.365814,309.505280 435.286346,303.008209 
	C435.230194,298.415924 432.555664,295.504639 428.505676,294.145660 
	C424.389343,292.764435 421.259216,295.150330 419.282623,298.388794 
	C418.172272,300.207947 417.968048,302.799286 417.966156,305.043213 
	C417.936005,340.697021 418.004944,376.350891 418.050751,412.004761 
	C418.053040,413.776764 418.051025,415.548798 418.051025,417.442322 
	C415.445801,417.442322 413.449219,417.447021 411.452637,417.441650 
	C376.132019,417.346527 340.811462,417.235077 305.490784,417.167908 
	C299.016663,417.155579 294.340668,420.995300 294.397278,426.068024 
	C294.455658,431.297943 298.902618,434.842377 305.467316,434.851807 
	C344.953156,434.908508 384.439026,434.960144 423.924866,435.007812 
	C432.791351,435.018524 435.761414,432.010010 435.732422,422.965057 
	C435.626038,389.810364 435.498047,356.655792 435.374573,322.501251 
z"/>
<path fill="#010101" opacity="1.000000" stroke="none" 
	d="
M213.531342,1.000000 
	C221.417252,2.244700 228.860321,3.353257 236.247757,4.755100 
	C312.477081,19.220432 375.227203,79.491043 390.684357,155.357285 
	C405.449097,227.825287 386.414154,291.020966 332.720276,342.325989 
	C297.897369,375.599579 255.533325,392.741333 207.241074,395.176819 
	C120.140144,399.569427 37.701553,344.374939 10.722450,258.639984 
	C6.507758,245.246429 4.683974,231.100494 1.377309,217.151230 
	C1.000000,205.312439 1.000000,193.624878 1.369120,181.282959 
	C3.171446,171.781982 4.191591,162.845032 6.102749,154.102890 
	C22.423008,79.449623 84.724586,19.034679 159.822525,4.840587 
	C166.871826,3.508217 173.940384,2.277769 181.000000,1.000000 
	C191.687561,1.000000 202.375122,1.000000 213.531342,1.000000 
M76.360245,115.891930 
	C64.066383,134.430511 55.645611,154.514343 52.795341,176.669891 
	C45.707447,231.765167 63.537628,277.745270 106.087845,312.904297 
	C153.947067,352.450165 220.734161,356.216034 274.150024,324.369049 
	C325.794342,293.578247 353.869781,233.000839 343.462830,173.783966 
	C336.324860,133.168076 315.607269,100.732704 281.848114,77.175705 
	C247.297485,53.066418 208.725723,45.951973 167.728622,54.339119 
	C129.352768,62.190014 99.185181,83.169121 76.360245,115.891930 
z"/>
<path fill="#FEFEFE" opacity="1.000000" stroke="none" 
	d="
M180.531342,1.000000 
	C173.940384,2.277769 166.871826,3.508217 159.822525,4.840587 
	C84.724586,19.034679 22.423008,79.449623 6.102749,154.102890 
	C4.191591,162.845032 3.171446,171.781982 1.369120,180.814301 
	C1.000000,121.072975 1.000000,61.145954 1.000000,1.000000 
	C60.687382,1.000000 120.375031,1.000000 180.531342,1.000000 
z"/>
<path fill="#050505" opacity="1.000000" stroke="none" 
	d="
M435.376404,323.001221 
	C435.498047,356.655792 435.626038,389.810364 435.732422,422.965057 
	C435.761414,432.010010 432.791351,435.018524 423.924866,435.007812 
	C384.439026,434.960144 344.953156,434.908508 305.467316,434.851807 
	C298.902618,434.842377 294.455658,431.297943 294.397278,426.068024 
	C294.340668,420.995300 299.016663,417.155579 305.490784,417.167908 
	C340.811462,417.235077 376.132019,417.346527 411.452637,417.441650 
	C413.449219,417.447021 415.445801,417.442322 418.051025,417.442322 
	C418.051025,415.548798 418.053040,413.776764 418.050751,412.004761 
	C418.004944,376.350891 417.936005,340.697021 417.966156,305.043213 
	C417.968048,302.799286 418.172272,300.207947 419.282623,298.388794 
	C421.259216,295.150330 424.389343,292.764435 428.505676,294.145660 
	C432.555664,295.504639 435.230194,298.415924 435.286346,303.008209 
	C435.365814,309.505280 435.349792,316.003510 435.376404,323.001221 
z"/>
<path fill="#FFFFFF" opacity="1.000000" stroke="none" 
	d="
M76.590790,115.613190 
	C99.185181,83.169121 129.352768,62.190014 167.728622,54.339119 
	C208.725723,45.951973 247.297485,53.066418 281.848114,77.175705 
	C315.607269,100.732704 336.324860,133.168076 343.462830,173.783966 
	C353.869781,233.000839 325.794342,293.578247 274.150024,324.369049 
	C220.734161,356.216034 153.947067,352.450165 106.087845,312.904297 
	C63.537628,277.745270 45.707447,231.765167 52.795341,176.669891 
	C55.645611,154.514343 64.066383,134.430511 76.590790,115.613190 
z"/>
</svg>